<svg xmlns="http://www.w3.org/2000/svg" xmlns:xlink="http://www.w3.org/1999/xlink" width="221.259" height="54.196" viewBox="0 0 221.259 54.196">
  <defs>
    <linearGradient id="linear-gradient" x1="0.212" y1="0.19" x2="1.004" y2="0.772" gradientUnits="objectBoundingBox">
      <stop offset="0" stop-color="#f47828"/>
      <stop offset="0.877" stop-color="#a8a287"/>
    </linearGradient>
    <linearGradient id="linear-gradient-2" x1="-1.709" y1="0.499" x2="6.09" y2="0.499" xlink:href="#linear-gradient"/>
    <linearGradient id="linear-gradient-3" x1="0.349" y1="0.428" x2="0.636" y2="0.563" gradientUnits="objectBoundingBox">
      <stop offset="0" stop-color="#f05a24" stop-opacity="0"/>
      <stop offset="1" stop-color="#a57c52"/>
    </linearGradient>
    <linearGradient id="linear-gradient-4" x1="0.003" y1="0.5" x2="1" y2="0.5" xlink:href="#linear-gradient-3"/>
    <linearGradient id="linear-gradient-5" x1="-0.001" y1="0.496" x2="1" y2="0.496" gradientUnits="objectBoundingBox">
      <stop offset="0" stop-color="#a57c52" stop-opacity="0"/>
      <stop offset="1" stop-color="#a57c52"/>
    </linearGradient>
    <linearGradient id="linear-gradient-6" x1="0" y1="0.499" x2="1.001" y2="0.499" xlink:href="#linear-gradient-3"/>
  </defs>
  <g id="Group_6034" data-name="Group 6034" transform="translate(-2540.2 1025.172)">
    <g id="Group_6015" data-name="Group 6015" transform="translate(2592.099 -1010.361)">
      <path id="Path_15892" data-name="Path 15892" d="M528.365,480.4c8.411,0,13.477,3.282,14.5,10.134h-8c-.656-1.949-2.544-3.241-6.5-3.241-4.39,0-6.729,1.6-6.729,5.354S523.975,498,528.365,498c3.939,0,5.846-1.292,6.5-3.241h8c-1.026,6.831-6.093,10.134-14.5,10.134-9.354,0-14.565-4.123-14.565-12.226C513.8,484.523,519.01,480.4,528.365,480.4Z" transform="translate(-513.8 -480.4)" fill="#04211b"/>
      <path id="Path_15893" data-name="Path 15893" d="M691.57,481.549V489.2a12.458,12.458,0,0,0-5.272-1.149c-2.339,0-5.231.759-8.062,4.821v11.241H670.4V481.159h7.836v4.964c2.154-4.164,4.759-5.723,8.37-5.723A10.636,10.636,0,0,1,691.57,481.549Z" transform="translate(-638.276 -480.4)" fill="#04211b"/>
      <path id="Path_15894" data-name="Path 15894" d="M785.2,492.626c0-7.611,4.862-12.226,14.565-12.226s14.565,4.616,14.565,12.226-4.862,12.226-14.565,12.226S785.2,500.237,785.2,492.626Zm20.965,0c0-3.754-2.072-5.354-6.4-5.354s-6.4,1.6-6.4,5.354,2.072,5.354,6.4,5.354C804.072,497.98,806.165,496.38,806.165,492.626Z" transform="translate(-729.526 -480.4)" fill="#04211b"/>
      <path id="Path_15895" data-name="Path 15895" d="M950.624,484.1h7.939L948.7,507.034H937.167L927.3,484.1h7.939l7.734,18.113Z" transform="translate(-842.477 -483.341)" fill="#04211b"/>
      <path id="Path_15896" data-name="Path 15896" d="M1100.832,495.867h7.651c-1.354,5.7-5.477,8.985-14.052,8.985-9.19,0-14.831-4.123-14.831-12.226s6.031-12.226,14.524-12.226c8.739,0,14.524,4.349,14.524,13.683h-21.129c.554,3.323,3.1,4.287,7.221,4.287C1098.6,498.349,1100.155,497.365,1100.832,495.867Zm-13.026-6.154h12.759c-.882-2.646-3.056-3.59-6.441-3.59C1090.841,486.123,1088.646,487.087,1087.805,489.713Z" transform="translate(-963.534 -480.4)" fill="#04211b"/>
      <path id="Path_15897" data-name="Path 15897" d="M1257.37,481.549V489.2a12.458,12.458,0,0,0-5.272-1.149c-2.339,0-5.231.759-8.062,4.821v11.241H1236.2V481.159h7.836v4.964c2.154-4.164,4.759-5.723,8.37-5.723A10.52,10.52,0,0,1,1257.37,481.549Z" transform="translate(-1088.01 -480.4)" fill="#04211b"/>
    </g>
    <g id="Group_6016" data-name="Group 6016" transform="translate(2540.2 -1025.172)">
      <path id="Path_15898" data-name="Path 15898" d="M357.518,428.218a18.368,18.368,0,0,1,2.995,1.149,48.1,48.1,0,0,1,4.677,2.667c2.831,1.744,5.744,3.549,8.677,3.959a8.274,8.274,0,0,0,1.231.082,6.637,6.637,0,0,0,3.118-.7,4.085,4.085,0,0,0,1.456-1.272,4.223,4.223,0,0,0,.533-3.2,5.208,5.208,0,0,0-1.867-2.728c-1.744-1.477-5.785-3.077-10.523-3.077a18.2,18.2,0,0,0-9.908,2.79h-.021c-.369.226-.718.451-1.087.718a6.445,6.445,0,0,1,.636-.41A.156.156,0,0,0,357.518,428.218Z" transform="translate(-337.107 -421.633)" fill="none"/>
      <path id="Path_15899" data-name="Path 15899" d="M380.76,602.1a6.476,6.476,0,0,0-3.118-.7,8.265,8.265,0,0,0-1.231.082c-2.933.41-5.846,2.215-8.677,3.959A30.556,30.556,0,0,1,360,609.277c.144.1.308.205.451.308a18.2,18.2,0,0,0,9.908,2.79c4.739,0,8.759-1.6,10.523-3.077a5.123,5.123,0,0,0,1.867-2.728,4.332,4.332,0,0,0-.533-3.2A4.53,4.53,0,0,0,380.76,602.1Z" transform="translate(-339.65 -561.768)" fill="none"/>
      <path id="Path_15900" data-name="Path 15900" d="M303.611,445.453a9.81,9.81,0,0,0-4.821-1.149,12.164,12.164,0,0,0-1.723.123c-3.672.513-6.913,2.5-10.031,4.451-3.1,1.908-6.01,3.713-8.821,3.713a3.632,3.632,0,0,1-.472-.021,25.639,25.639,0,0,1-4.144-7.426,26.806,26.806,0,0,1-1.826-9.457v-.9a27.278,27.278,0,0,1,1.826-9.457,26.5,26.5,0,0,1,3.918-7.139,9.736,9.736,0,0,1,.821-1.005c-.185.226-.39.451-.595.738a3.477,3.477,0,0,1,.472-.021c.246,0,.492.021.738.041a8.738,8.738,0,0,1,1.7.369,30.633,30.633,0,0,1,6.38,3.3c3.139,1.928,6.38,3.939,10.031,4.451a12.393,12.393,0,0,0,1.723.123,9.951,9.951,0,0,0,4.821-1.149,7.546,7.546,0,0,0,2.646-2.359,7.853,7.853,0,0,0,1.067-5.949,8.488,8.488,0,0,0-3.016-4.616c-2.3-1.949-6.3-3.405-10.462-3.8a22.721,22.721,0,0,0-2.359-.123,21.4,21.4,0,0,0-11.775,3.344,20.914,20.914,0,0,0-3.754,3.118h-.021a41.2,41.2,0,0,0-4.451,6.687c-.492,1.046-.862,1.969-1.149,2.708a30.325,30.325,0,0,0-2.072,10.708v1.005a30.9,30.9,0,0,0,2.072,10.708c.349.9.821,2.072,1.477,3.405a19.683,19.683,0,0,1-3.918-3.918c-.144-.205-.246-.349-.328-.472a16.73,16.73,0,0,1-3.262-9.744v-.944a16.7,16.7,0,0,1,3.282-9.744c.082-.1.185-.267.328-.451.123-.164.246-.328.369-.472.431-1.005.882-1.99,1.374-2.954a42.754,42.754,0,0,1,3.241-5.313,23.253,23.253,0,0,0-7.816,6.667c-.164.226-.287.41-.39.533a20.063,20.063,0,0,0-3.9,11.775v.944a20.1,20.1,0,0,0,3.918,11.775,6.345,6.345,0,0,0,.39.533,22.1,22.1,0,0,0,10.2,7.631c.246.082.492.144.718.205a20.914,20.914,0,0,0,3.754,3.118,21.4,21.4,0,0,0,11.775,3.344,22.738,22.738,0,0,0,2.359-.123c4.164-.39,8.164-1.846,10.462-3.8a8.377,8.377,0,0,0,3.016-4.616,7.561,7.561,0,0,0-3.774-8.411ZM281.6,414.477h0a18.338,18.338,0,0,1,9.929-2.81c4.739,0,8.759,1.6,10.523,3.077a5.123,5.123,0,0,1,1.867,2.728,3.855,3.855,0,0,1-1.99,4.472,6.475,6.475,0,0,1-3.118.7,8.274,8.274,0,0,1-1.231-.082c-2.933-.41-5.846-2.216-8.677-3.959a48.084,48.084,0,0,0-4.677-2.667,18.368,18.368,0,0,0-2.995-1.149.075.075,0,0,1-.062-.021c-.185.123-.41.246-.636.41C280.862,414.928,281.231,414.7,281.6,414.477Zm-2.831,2.215a1.857,1.857,0,0,0-.185.205C278.646,416.836,278.708,416.754,278.769,416.693ZM303.9,453a5.208,5.208,0,0,1-1.867,2.728c-1.744,1.477-5.785,3.077-10.523,3.077a18.2,18.2,0,0,1-9.908-2.79c-.144-.1-.308-.205-.451-.308a29.886,29.886,0,0,0,7.734-3.836c2.831-1.744,5.744-3.549,8.677-3.959a8.274,8.274,0,0,1,1.231-.082,6.636,6.636,0,0,1,3.118.7,4.084,4.084,0,0,1,1.456,1.272A4.325,4.325,0,0,1,303.9,453Z" transform="translate(-260.799 -408.2)" fill="url(#linear-gradient)"/>
      <path id="Path_15901" data-name="Path 15901" d="M297.1,449.036a20.983,20.983,0,0,1,3.549-3.446c-.123.226-.226.472-.328.7a41.2,41.2,0,0,1,4.451-6.687,13.483,13.483,0,0,0-3.057,1.169,42.746,42.746,0,0,0-3.241,5.313C297.982,447.046,297.531,448.031,297.1,449.036Z" transform="translate(-289.653 -433.159)" fill="url(#linear-gradient-2)"/>
      <path id="Path_15902" data-name="Path 15902" d="M297.1,449.036a20.983,20.983,0,0,1,3.549-3.446,29.561,29.561,0,0,1,1.908-3.18,26.368,26.368,0,0,1,2.215-2.81,15.305,15.305,0,0,0-1.5.472c-.513.205-1.026.431-1.559.7a42.754,42.754,0,0,0-3.241,5.313C297.982,447.046,297.531,448.031,297.1,449.036Z" transform="translate(-289.653 -433.159)" fill="url(#linear-gradient-3)"/>
      <path id="Path_15903" data-name="Path 15903" d="M347.2,442.867a10.88,10.88,0,0,1,2.585-1.5,18.366,18.366,0,0,0-2.995-1.149.075.075,0,0,1-.062-.021,12.191,12.191,0,0,0-1.067.718,10.456,10.456,0,0,0-1.087.964,12.577,12.577,0,0,0-1.272,1.456,3.479,3.479,0,0,1,.472-.021c.246,0,.492.021.738.041a8.744,8.744,0,0,1,1.7.369A12.842,12.842,0,0,1,347.2,442.867Z" transform="translate(-326.376 -433.636)" fill="url(#linear-gradient-4)"/>
      <path id="Path_15904" data-name="Path 15904" d="M346.98,623.6a11.656,11.656,0,0,0,2.667,1.477,19.036,19.036,0,0,1-3.077,1.108.075.075,0,0,0-.062.021c-.308-.185-.677-.41-1.087-.7a11.89,11.89,0,0,1-1.128-.923A13.444,13.444,0,0,1,343,623.169a3.611,3.611,0,0,0,.472.021c.246,0,.513-.021.759-.041a11.166,11.166,0,0,0,1.764-.349C346.3,623.067,346.631,623.354,346.98,623.6Z" transform="translate(-326.138 -578.778)" fill="url(#linear-gradient-5)"/>
      <path id="Path_15905" data-name="Path 15905" d="M297.3,594.4a20.975,20.975,0,0,0,3.549,3.446,29.558,29.558,0,0,0,1.908,3.18,26.367,26.367,0,0,0,2.215,2.81,15.278,15.278,0,0,1-1.5-.472c-.513-.205-1.026-.431-1.559-.7a42.747,42.747,0,0,1-3.241-5.313C298.182,596.39,297.731,595.385,297.3,594.4Z" transform="translate(-289.812 -556.204)" fill="url(#linear-gradient-6)"/>
    </g>
  </g>
</svg>
