<svg xmlns="http://www.w3.org/2000/svg" width="25.638" height="17.59" viewBox="0 0 25.638 17.59">
  <path id="Icon" d="M41.966,119.317c5.791,2.344,10.656,2.9,16.191-.591a7.051,7.051,0,0,1-3.9,2.442c.591.808,1.4,1.733,1.4,1.733a9.275,9.275,0,0,0,5.062-1.5,3.84,3.84,0,0,0,1.714-3.565,26.338,26.338,0,0,0-1.694-7.052,8.268,8.268,0,0,0-6.953-5.3c-.276-.02-.473-.02-.591-.02l-.315.315a13.972,13.972,0,0,1,5.436,2.679,19.86,19.86,0,0,0-17.649-.118,12.61,12.61,0,0,1,5.692-2.679l-.236-.236a8.51,8.51,0,0,0-1.221.1,8.3,8.3,0,0,0-6.362,5.22,27.1,27.1,0,0,0-1.714,7.367,3.8,3.8,0,0,0,1.615,3.427,8.982,8.982,0,0,0,4.944,1.477s.709-.926,1.418-1.753a6.831,6.831,0,0,1-3.762-2.423c.122.077.256.156.4.232A5.621,5.621,0,0,0,41.966,119.317Zm3.585-1.517a2.336,2.336,0,1,1,2.245-2.245A2.335,2.335,0,0,1,45.551,117.8Zm8.036,0a2.336,2.336,0,1,1,2.245-2.245A2.335,2.335,0,0,1,53.588,117.8Z" transform="translate(-36.811 -105.431)" fill="#f47828"/>
</svg>
