<svg xmlns="http://www.w3.org/2000/svg" width="130" height="29" viewBox="0 0 130 29" fill="none"><path d="M105.492 11.2921L104.041 8.7373H103.264L105.102 12.0051L103.612 14.6649H104.38L107.636 8.7373H106.873L105.492 11.2921Z" fill="#1A1A1A"></path><path d="M111.036 8.64941C109.813 8.64941 108.904 9.58134 108.904 10.8147C108.904 12.0487 109.813 12.9803 111.036 12.9803C112.259 12.9803 113.171 12.0487 113.171 10.8147C113.171 9.58134 112.259 8.64941 111.036 8.64941ZM111.036 12.3111C110.225 12.3111 109.613 11.6854 109.613 10.8147C109.613 9.94431 110.225 9.32311 111.036 9.32311C111.842 9.32311 112.458 9.94431 112.458 10.8147C112.458 11.6854 111.842 12.3111 111.036 12.3111Z" fill="#1A1A1A"></path><path d="M116.981 12.9807C117.945 12.9807 118.82 12.4075 118.82 11.1521V8.7373H118.123V11.0866C118.123 11.935 117.636 12.3115 116.981 12.3115C116.323 12.3115 115.835 11.935 115.835 11.0866V8.7373H115.139V11.1521C115.139 12.4075 116.009 12.9807 116.981 12.9807Z" fill="#1A1A1A"></path><path d="M121.791 10.5788C121.791 9.81308 122.224 9.32735 122.84 9.32735C123.069 9.32735 123.34 9.38436 123.531 9.48935L123.701 8.78487C123.485 8.68892 123.251 8.64941 122.963 8.64941C122.483 8.64941 122.063 8.87689 121.783 9.28388V8.7369H121.099V12.8928H121.791V10.5788H121.791Z" fill="#1A1A1A"></path><path d="M105.673 17.8615L105.206 17.8005C104.717 17.739 104.425 17.5863 104.425 17.2533C104.425 16.8773 104.781 16.6366 105.333 16.6366C105.864 16.6366 106.378 16.8423 106.632 17.0216L106.934 16.4663C106.543 16.1906 105.962 16.0156 105.325 16.0156C104.344 16.0156 103.703 16.4966 103.703 17.293C103.703 17.923 104.14 18.343 105.045 18.4564L105.511 18.5132C106.06 18.5832 106.322 18.7762 106.322 19.0821C106.322 19.4931 105.915 19.7163 105.253 19.7163C104.577 19.7163 104.174 19.5154 103.873 19.2746L103.55 19.8081C104.081 20.2196 104.751 20.3421 105.249 20.3421C106.348 20.3421 107.036 19.8303 107.036 19.0381C107.036 18.3514 106.53 17.9797 105.673 17.8615Z" fill="#1A1A1A"></path><path d="M111.098 16.0117C110.461 16.0117 109.99 16.2652 109.676 16.6544V16.0987H108.984V22.0047H109.676V19.6991C109.99 20.0884 110.461 20.3424 111.098 20.3424C112.227 20.3424 113.115 19.4324 113.115 18.1768C113.115 16.9216 112.227 16.0117 111.098 16.0117ZM111.018 19.6732C110.202 19.6732 109.634 19.0299 109.634 18.1768C109.634 17.3283 110.202 16.6851 111.018 16.6851C111.842 16.6851 112.401 17.3501 112.401 18.1768C112.401 19.0034 111.854 19.6732 111.018 19.6732Z" fill="#1A1A1A"></path><path d="M118.259 16.6586C117.941 16.2652 117.47 16.0117 116.837 16.0117C115.703 16.0117 114.82 16.9216 114.82 18.1768C114.82 19.4324 115.703 20.3424 116.837 20.3424C117.47 20.3424 117.941 20.0884 118.259 19.6991V20.2549H118.956V16.0987H118.259V16.6586ZM116.918 19.6732C116.09 19.6732 115.529 19.0034 115.529 18.1768C115.529 17.3501 116.077 16.6851 116.918 16.6851C117.733 16.6851 118.302 17.3283 118.302 18.1768C118.302 19.0299 117.733 19.6732 116.918 19.6732Z" fill="#1A1A1A"></path><path d="M123.044 16.6851C123.473 16.6851 123.817 16.8559 124.115 17.1534L124.56 16.6676C124.199 16.2387 123.66 16.0117 123.062 16.0117C121.813 16.0117 120.968 16.9434 120.968 18.1768C120.968 19.4107 121.813 20.3424 123.062 20.3424C123.66 20.3424 124.195 20.1149 124.56 19.6907L124.131 19.1965C123.851 19.4764 123.473 19.6732 123.044 19.6732C122.268 19.6732 121.677 19.0474 121.677 18.1768C121.677 17.3066 122.268 16.6851 123.044 16.6851Z" fill="#1A1A1A"></path><path d="M129.999 18.1635C129.99 16.8909 129.201 16.0117 128.101 16.0117C126.942 16.0117 126.097 16.8994 126.097 18.1768C126.097 19.4717 126.946 20.3424 128.144 20.3424C128.738 20.3424 129.299 20.1934 129.799 19.7124L129.43 19.2225C129.086 19.5284 128.657 19.7166 128.186 19.7166C127.494 19.7166 126.912 19.2924 126.815 18.4308H129.986C129.99 18.3517 129.999 18.2558 129.999 18.1635ZM126.823 17.8533C126.929 17.1444 127.375 16.6459 128.088 16.6459C128.742 16.6459 129.205 17.1184 129.29 17.8533H126.823Z" fill="#1A1A1A"></path><path d="M6.91414 8.53809C5.384 8.53809 4.22808 9.09564 3.50398 10.3176V9.3104C3.50398 9.06094 3.3049 8.8587 3.05931 8.8587H0.44466C0.19908 8.8587 0 9.06094 0 9.3104V20.0442C0 20.2937 0.19908 20.4959 0.444665 20.4959H3.21117C3.45675 20.4959 3.65586 20.2937 3.65586 20.0442V14.2327C3.65586 12.7258 4.49661 12.0261 5.51253 12.0261C6.64562 12.0261 7.32311 12.7969 7.32311 14.1732V20.0442C7.32311 20.2937 7.52219 20.4959 7.76777 20.4959H10.5338C10.7794 20.4959 10.9784 20.2937 10.9784 20.0442V12.8564C10.9784 10.1634 9.20313 8.53809 6.91414 8.53809Z" fill="#1A1A1A"></path><path d="M70.9151 14.4866C70.7996 14.3187 70.8054 14.0932 70.9293 13.9316L74.4555 9.33297C74.6898 9.02738 74.4768 8.58007 74.097 8.58007H70.7652C70.6181 8.58007 70.4801 8.65271 70.3946 8.77514L67.9103 12.3326C67.8249 12.4551 67.6868 12.5277 67.5397 12.5277H67.3384C67.0869 12.5277 66.883 12.3193 66.883 12.0621V3.47054C66.883 3.21338 66.6791 3.00488 66.4276 3.00488H63.62C63.3685 3.00488 63.1646 3.21338 63.1646 3.47054V20.03C63.1646 20.2872 63.3685 20.4956 63.62 20.4956H66.4276C66.6791 20.4956 66.883 20.2872 66.883 20.03V16.3581C66.883 16.1009 67.0869 15.8924 67.3384 15.8924H67.4296C67.5851 15.8924 67.7298 15.9735 67.8135 16.1075L70.4197 20.2806C70.5034 20.4145 70.6481 20.4956 70.8036 20.4956H74.1687C74.5376 20.4956 74.7534 20.0708 74.5414 19.7622L70.9151 14.4866Z" fill="#1A1A1A"></path><path d="M91.1676 8.69048H88.4781C88.2266 8.69048 88.0227 8.89266 88.0227 9.14209V9.939C87.3224 9.0319 86.2531 8.37207 84.6849 8.37207C81.5602 8.37207 79.2549 11.0584 79.2549 14.4511C79.2549 17.8676 81.5602 20.5534 84.6723 20.5534C86.2531 20.5534 87.3224 19.9056 88.0227 18.9985V19.7954C88.0227 20.0448 88.2266 20.247 88.4781 20.247H91.1676C91.4191 20.247 91.623 20.0448 91.623 19.7954V9.14209C91.623 8.89266 91.4191 8.69048 91.1676 8.69048ZM85.5634 17.1136C84.0786 17.1136 83.0809 15.9707 83.0809 14.4626C83.0809 12.9548 84.0786 11.8123 85.5634 11.8123C87.025 11.8123 88.0585 12.9312 88.0585 14.4626C88.0585 15.9943 87.025 17.1136 85.5634 17.1136Z" fill="#1A1A1A"></path><path d="M30.1695 0C22.3978 0 16.0977 6.49188 16.0977 14.5C16.0977 22.5081 22.3978 29 30.1695 29C37.9412 29 44.2414 22.5081 44.2414 14.5C44.2414 6.49188 37.9412 0 30.1695 0ZM29.9787 20.5043C26.9262 20.4039 24.44 17.842 24.3425 14.6966C24.2349 11.2233 26.9896 8.38484 30.3603 8.49574C33.4129 8.59617 35.8991 11.158 35.9965 14.3034C36.1041 17.7767 33.3495 20.6151 29.9787 20.5043Z" fill="#1A1A1A"></path><path d="M52.8085 0.00314211C49.4377 -0.107742 46.683 2.73077 46.7906 6.20409C46.8881 9.34947 49.3743 11.9113 52.4268 12.0117C55.7975 12.1225 58.5522 9.28408 58.4446 5.81083C58.3472 2.66542 55.861 0.103566 52.8085 0.00314211Z" fill="#F72431"></path></svg>