<svg xmlns="http://www.w3.org/2000/svg" width="25.795" height="20.99" viewBox="0 0 25.795 20.99">
  <path id="_x30_4.Twitter" d="M35.7,19.983a10.848,10.848,0,0,1-3.031.838,5.158,5.158,0,0,0,2.322-2.934,11.136,11.136,0,0,1-3.353,1.29,5.292,5.292,0,0,0-9.157,3.611,4.835,4.835,0,0,0,.129,1.193,14.885,14.885,0,0,1-10.866-5.514,5.307,5.307,0,0,0,1.612,7.061,5.077,5.077,0,0,1-2.386-.645,5.344,5.344,0,0,0,4.224,5.256,5.8,5.8,0,0,1-2.386.1,5.31,5.31,0,0,0,4.933,3.676A10.654,10.654,0,0,1,9.9,36.1a15.026,15.026,0,0,0,23.151-12.64,4.762,4.762,0,0,0-.032-.677A10.5,10.5,0,0,0,35.7,19.983Z" transform="translate(-9.9 -17.5)" fill="#f47828"/>
</svg>
